<mxfile host="app.diagrams.net" modified="2024-03-11T19:51:20.088Z" agent="Mozilla/5.0 (Windows NT 10.0; Win64; x64) AppleWebKit/537.36 (KHTML, like Gecko) Chrome/122.0.0.0 Safari/537.36" etag="bN62kkYbpoRfCqWl5lHD" version="24.0.2" type="google">
  <diagram name="Página-1" id="lmp6F7RVdOOkFtUqwaBd">
    <mxGraphModel dx="3414" dy="888" grid="1" gridSize="10" guides="1" tooltips="1" connect="1" arrows="1" fold="1" page="1" pageScale="1" pageWidth="827" pageHeight="1169" math="0" shadow="0">
      <root>
        <mxCell id="0" />
        <mxCell id="1" parent="0" />
        <mxCell id="G66qDVMzxWP-WgLyKfKi-18" value="Verificar Email" style="points=[[0.25,0,0],[0.5,0,0],[0.75,0,0],[1,0.25,0],[1,0.5,0],[1,0.75,0],[0.75,1,0],[0.5,1,0],[0.25,1,0],[0,0.75,0],[0,0.5,0],[0,0.25,0]];shape=mxgraph.bpmn.task;whiteSpace=wrap;rectStyle=rounded;size=10;html=1;container=1;expand=0;collapsible=0;taskMarker=service;" vertex="1" parent="1">
          <mxGeometry x="-600" y="230" width="120" height="80" as="geometry" />
        </mxCell>
        <mxCell id="G66qDVMzxWP-WgLyKfKi-19" value="Verificar telefone" style="points=[[0.25,0,0],[0.5,0,0],[0.75,0,0],[1,0.25,0],[1,0.5,0],[1,0.75,0],[0.75,1,0],[0.5,1,0],[0.25,1,0],[0,0.75,0],[0,0.5,0],[0,0.25,0]];shape=mxgraph.bpmn.task;whiteSpace=wrap;rectStyle=rounded;size=10;html=1;container=1;expand=0;collapsible=0;taskMarker=service;" vertex="1" parent="1">
          <mxGeometry x="-440" y="230" width="120" height="80" as="geometry" />
        </mxCell>
        <mxCell id="G66qDVMzxWP-WgLyKfKi-20" style="edgeStyle=orthogonalEdgeStyle;rounded=0;orthogonalLoop=1;jettySize=auto;html=1;entryX=0;entryY=0.5;entryDx=0;entryDy=0;entryPerimeter=0;" edge="1" parent="1" source="G66qDVMzxWP-WgLyKfKi-18" target="G66qDVMzxWP-WgLyKfKi-19">
          <mxGeometry relative="1" as="geometry" />
        </mxCell>
        <mxCell id="G66qDVMzxWP-WgLyKfKi-23" style="edgeStyle=orthogonalEdgeStyle;rounded=0;orthogonalLoop=1;jettySize=auto;html=1;entryX=0;entryY=0.5;entryDx=0;entryDy=0;entryPerimeter=0;" edge="1" parent="1" source="G66qDVMzxWP-WgLyKfKi-19">
          <mxGeometry relative="1" as="geometry">
            <mxPoint x="-260" y="270" as="targetPoint" />
          </mxGeometry>
        </mxCell>
        <mxCell id="G66qDVMzxWP-WgLyKfKi-1" value="&lt;font style=&quot;vertical-align: inherit;&quot;&gt;&lt;font style=&quot;vertical-align: inherit;&quot;&gt;abertura de conta&lt;/font&gt;&lt;/font&gt;" style="points=[[0.145,0.145,0],[0.5,0,0],[0.855,0.145,0],[1,0.5,0],[0.855,0.855,0],[0.5,1,0],[0.145,0.855,0],[0,0.5,0]];shape=mxgraph.bpmn.event;html=1;verticalLabelPosition=bottom;labelBackgroundColor=#ffffff;verticalAlign=top;align=center;perimeter=ellipsePerimeter;outlineConnect=0;aspect=fixed;outline=standard;symbol=general;fillColor=#d5e8d4;strokeColor=#82b366;" vertex="1" parent="1">
          <mxGeometry x="-1100" y="115" width="50" height="50" as="geometry" />
        </mxCell>
        <mxCell id="G66qDVMzxWP-WgLyKfKi-27" value="Verificar risco de conta" style="points=[[0.25,0,0],[0.5,0,0],[0.75,0,0],[1,0.25,0],[1,0.5,0],[1,0.75,0],[0.75,1,0],[0.5,1,0],[0.25,1,0],[0,0.75,0],[0,0.5,0],[0,0.25,0]];shape=mxgraph.bpmn.task;whiteSpace=wrap;rectStyle=rounded;size=10;html=1;container=1;expand=0;collapsible=0;bpmnShapeType=call;taskMarker=businessRule;" vertex="1" parent="1">
          <mxGeometry x="-260" y="230" width="120" height="80" as="geometry" />
        </mxCell>
        <mxCell id="G66qDVMzxWP-WgLyKfKi-35" style="edgeStyle=orthogonalEdgeStyle;rounded=0;orthogonalLoop=1;jettySize=auto;html=1;fillColor=#fff2cc;strokeColor=#d6b656;strokeWidth=4;entryX=0.5;entryY=0;entryDx=0;entryDy=0;entryPerimeter=0;exitX=1;exitY=0.5;exitDx=0;exitDy=0;exitPerimeter=0;" edge="1" parent="1" source="G66qDVMzxWP-WgLyKfKi-28" target="G66qDVMzxWP-WgLyKfKi-37">
          <mxGeometry relative="1" as="geometry">
            <mxPoint x="190" y="280" as="targetPoint" />
          </mxGeometry>
        </mxCell>
        <mxCell id="G66qDVMzxWP-WgLyKfKi-36" value="Risco moderado" style="edgeLabel;html=1;align=center;verticalAlign=middle;resizable=0;points=[];" vertex="1" connectable="0" parent="G66qDVMzxWP-WgLyKfKi-35">
          <mxGeometry x="-0.1389" y="3" relative="1" as="geometry">
            <mxPoint y="1" as="offset" />
          </mxGeometry>
        </mxCell>
        <mxCell id="G66qDVMzxWP-WgLyKfKi-28" value="" style="points=[[0.25,0.25,0],[0.5,0,0],[0.75,0.25,0],[1,0.5,0],[0.75,0.75,0],[0.5,1,0],[0.25,0.75,0],[0,0.5,0]];shape=mxgraph.bpmn.gateway2;html=1;verticalLabelPosition=bottom;labelBackgroundColor=#ffffff;verticalAlign=top;align=center;perimeter=rhombusPerimeter;outlineConnect=0;outline=none;symbol=none;gwType=exclusive;" vertex="1" parent="1">
          <mxGeometry x="-100" y="245" width="50" height="50" as="geometry" />
        </mxCell>
        <mxCell id="G66qDVMzxWP-WgLyKfKi-29" style="edgeStyle=orthogonalEdgeStyle;rounded=0;orthogonalLoop=1;jettySize=auto;html=1;entryX=0;entryY=0.5;entryDx=0;entryDy=0;entryPerimeter=0;" edge="1" parent="1" source="G66qDVMzxWP-WgLyKfKi-27" target="G66qDVMzxWP-WgLyKfKi-28">
          <mxGeometry relative="1" as="geometry" />
        </mxCell>
        <mxCell id="G66qDVMzxWP-WgLyKfKi-37" value="" style="points=[[0.25,0,0],[0.5,0,0],[0.75,0,0],[1,0.25,0],[1,0.5,0],[1,0.75,0],[0.75,1,0],[0.5,1,0],[0.25,1,0],[0,0.75,0],[0,0.5,0],[0,0.25,0]];rounded=1;arcSize=10;dashed=1;strokeColor=#000000;fillColor=none;gradientColor=none;dashPattern=8 3 1 3;strokeWidth=2;whiteSpace=wrap;html=1;movable=0;resizable=0;rotatable=0;deletable=0;editable=0;locked=1;connectable=0;" vertex="1" parent="1">
          <mxGeometry y="310" width="760" height="480" as="geometry" />
        </mxCell>
        <mxCell id="G66qDVMzxWP-WgLyKfKi-43" value="Solicitar confirmação de token" style="points=[[0.25,0,0],[0.5,0,0],[0.75,0,0],[1,0.25,0],[1,0.5,0],[1,0.75,0],[0.75,1,0],[0.5,1,0],[0.25,1,0],[0,0.75,0],[0,0.5,0],[0,0.25,0]];shape=mxgraph.bpmn.task;whiteSpace=wrap;rectStyle=rounded;size=10;html=1;container=1;expand=0;collapsible=0;taskMarker=send;fillColor=#e1d5e7;strokeColor=#9673a6;movable=0;resizable=0;rotatable=0;deletable=0;editable=0;locked=1;connectable=0;" vertex="1" parent="1">
          <mxGeometry x="180" y="415" width="120" height="80" as="geometry" />
        </mxCell>
        <mxCell id="G66qDVMzxWP-WgLyKfKi-46" value="Analisar token" style="points=[[0.25,0,0],[0.5,0,0],[0.75,0,0],[1,0.25,0],[1,0.5,0],[1,0.75,0],[0.75,1,0],[0.5,1,0],[0.25,1,0],[0,0.75,0],[0,0.5,0],[0,0.25,0]];shape=mxgraph.bpmn.task;whiteSpace=wrap;rectStyle=rounded;size=10;html=1;container=1;expand=0;collapsible=0;taskMarker=service;fillColor=#fff2cc;strokeColor=#d6b656;movable=0;resizable=0;rotatable=0;deletable=0;editable=0;locked=1;connectable=0;" vertex="1" parent="1">
          <mxGeometry x="400" y="415" width="120" height="80" as="geometry" />
        </mxCell>
        <mxCell id="G66qDVMzxWP-WgLyKfKi-47" value="" style="points=[[0.145,0.145,0],[0.5,0,0],[0.855,0.145,0],[1,0.5,0],[0.855,0.855,0],[0.5,1,0],[0.145,0.855,0],[0,0.5,0]];shape=mxgraph.bpmn.event;html=1;verticalLabelPosition=bottom;labelBackgroundColor=#ffffff;verticalAlign=top;align=center;perimeter=ellipsePerimeter;outlineConnect=0;aspect=fixed;outline=standard;symbol=timer;movable=0;resizable=0;rotatable=0;deletable=0;editable=0;locked=1;connectable=0;" vertex="1" parent="G66qDVMzxWP-WgLyKfKi-46">
          <mxGeometry x="70" y="80" width="50" height="50" as="geometry" />
        </mxCell>
        <mxCell id="G66qDVMzxWP-WgLyKfKi-53" value="" style="points=[[0.145,0.145,0],[0.5,0,0],[0.855,0.145,0],[1,0.5,0],[0.855,0.855,0],[0.5,1,0],[0.145,0.855,0],[0,0.5,0]];shape=mxgraph.bpmn.event;html=1;verticalLabelPosition=bottom;labelBackgroundColor=#ffffff;verticalAlign=top;align=center;perimeter=ellipsePerimeter;outlineConnect=0;aspect=fixed;outline=eventNonint;symbol=timer;movable=0;resizable=0;rotatable=0;deletable=0;editable=0;locked=1;connectable=0;" vertex="1" parent="G66qDVMzxWP-WgLyKfKi-46">
          <mxGeometry y="80" width="50" height="50" as="geometry" />
        </mxCell>
        <mxCell id="G66qDVMzxWP-WgLyKfKi-48" value="" style="points=[[0.25,0.25,0],[0.5,0,0],[0.75,0.25,0],[1,0.5,0],[0.75,0.75,0],[0.5,1,0],[0.25,0.75,0],[0,0.5,0]];shape=mxgraph.bpmn.gateway2;html=1;verticalLabelPosition=bottom;labelBackgroundColor=#ffffff;verticalAlign=top;align=center;perimeter=rhombusPerimeter;outlineConnect=0;outline=none;symbol=none;gwType=exclusive;movable=0;resizable=0;rotatable=0;deletable=0;editable=0;locked=1;connectable=0;" vertex="1" parent="1">
          <mxGeometry x="550" y="495" width="50" height="50" as="geometry" />
        </mxCell>
        <mxCell id="G66qDVMzxWP-WgLyKfKi-49" style="edgeStyle=orthogonalEdgeStyle;rounded=0;orthogonalLoop=1;jettySize=auto;html=1;movable=0;resizable=0;rotatable=0;deletable=0;editable=0;locked=1;connectable=0;" edge="1" parent="1" source="G66qDVMzxWP-WgLyKfKi-47" target="G66qDVMzxWP-WgLyKfKi-48">
          <mxGeometry relative="1" as="geometry" />
        </mxCell>
        <mxCell id="G66qDVMzxWP-WgLyKfKi-50" value="Token OK" style="points=[[0.145,0.145,0],[0.5,0,0],[0.855,0.145,0],[1,0.5,0],[0.855,0.855,0],[0.5,1,0],[0.145,0.855,0],[0,0.5,0]];shape=mxgraph.bpmn.event;html=1;verticalLabelPosition=bottom;labelBackgroundColor=#ffffff;verticalAlign=top;align=center;perimeter=ellipsePerimeter;outlineConnect=0;aspect=fixed;outline=end;symbol=terminate2;fillColor=#f8cecc;strokeColor=#b85450;movable=0;resizable=0;rotatable=0;deletable=0;editable=0;locked=1;connectable=0;" vertex="1" parent="1">
          <mxGeometry x="680" y="495" width="50" height="50" as="geometry" />
        </mxCell>
        <mxCell id="G66qDVMzxWP-WgLyKfKi-52" style="edgeStyle=orthogonalEdgeStyle;rounded=0;orthogonalLoop=1;jettySize=auto;html=1;entryX=0.431;entryY=0.03;entryDx=0;entryDy=0;entryPerimeter=0;movable=0;resizable=0;rotatable=0;deletable=0;editable=0;locked=1;connectable=0;" edge="1" parent="1" source="G66qDVMzxWP-WgLyKfKi-48" target="G66qDVMzxWP-WgLyKfKi-43">
          <mxGeometry relative="1" as="geometry">
            <Array as="points">
              <mxPoint x="575" y="350" />
              <mxPoint x="232" y="350" />
            </Array>
          </mxGeometry>
        </mxCell>
        <mxCell id="G66qDVMzxWP-WgLyKfKi-54" value="Enviar alerta de acesso local diferente" style="points=[[0.25,0,0],[0.5,0,0],[0.75,0,0],[1,0.25,0],[1,0.5,0],[1,0.75,0],[0.75,1,0],[0.5,1,0],[0.25,1,0],[0,0.75,0],[0,0.5,0],[0,0.25,0]];shape=mxgraph.bpmn.task;whiteSpace=wrap;rectStyle=rounded;size=10;html=1;container=1;expand=0;collapsible=0;taskMarker=send;movable=1;resizable=1;rotatable=1;deletable=1;editable=1;locked=0;connectable=1;" vertex="1" parent="1">
          <mxGeometry x="420" y="630" width="120" height="80" as="geometry" />
        </mxCell>
        <mxCell id="G66qDVMzxWP-WgLyKfKi-55" style="edgeStyle=orthogonalEdgeStyle;rounded=0;orthogonalLoop=1;jettySize=auto;html=1;exitX=0.5;exitY=1;exitDx=0;exitDy=0;exitPerimeter=0;entryX=0.5;entryY=0;entryDx=0;entryDy=0;entryPerimeter=0;movable=0;resizable=0;rotatable=0;deletable=0;editable=0;locked=1;connectable=0;" edge="1" parent="1" source="G66qDVMzxWP-WgLyKfKi-53" target="G66qDVMzxWP-WgLyKfKi-54">
          <mxGeometry relative="1" as="geometry" />
        </mxCell>
        <mxCell id="G66qDVMzxWP-WgLyKfKi-56" value="Preencher Formulario" style="points=[[0.25,0,0],[0.5,0,0],[0.75,0,0],[1,0.25,0],[1,0.5,0],[1,0.75,0],[0.75,1,0],[0.5,1,0],[0.25,1,0],[0,0.75,0],[0,0.5,0],[0,0.25,0]];shape=mxgraph.bpmn.task;whiteSpace=wrap;rectStyle=rounded;size=10;html=1;container=1;expand=0;collapsible=0;taskMarker=abstract;" vertex="1" parent="1">
          <mxGeometry x="-1000" y="100" width="120" height="80" as="geometry" />
        </mxCell>
        <mxCell id="G66qDVMzxWP-WgLyKfKi-57" style="edgeStyle=orthogonalEdgeStyle;rounded=0;orthogonalLoop=1;jettySize=auto;html=1;entryX=0;entryY=0.5;entryDx=0;entryDy=0;entryPerimeter=0;" edge="1" parent="1" source="G66qDVMzxWP-WgLyKfKi-1" target="G66qDVMzxWP-WgLyKfKi-56">
          <mxGeometry relative="1" as="geometry" />
        </mxCell>
        <mxCell id="G66qDVMzxWP-WgLyKfKi-59" value="" style="points=[[0.25,0.25,0],[0.5,0,0],[0.75,0.25,0],[1,0.5,0],[0.75,0.75,0],[0.5,1,0],[0.25,0.75,0],[0,0.5,0]];shape=mxgraph.bpmn.gateway2;html=1;verticalLabelPosition=bottom;labelBackgroundColor=#ffffff;verticalAlign=top;align=center;perimeter=rhombusPerimeter;outlineConnect=0;outline=none;symbol=none;gwType=exclusive;" vertex="1" parent="1">
          <mxGeometry x="800" y="525" width="50" height="50" as="geometry" />
        </mxCell>
        <mxCell id="G66qDVMzxWP-WgLyKfKi-62" value="Solcitar token celular" style="points=[[0.25,0,0],[0.5,0,0],[0.75,0,0],[1,0.25,0],[1,0.5,0],[1,0.75,0],[0.75,1,0],[0.5,1,0],[0.25,1,0],[0,0.75,0],[0,0.5,0],[0,0.25,0]];shape=mxgraph.bpmn.task;whiteSpace=wrap;rectStyle=rounded;size=10;html=1;container=1;expand=0;collapsible=0;taskMarker=service;fillColor=#e1d5e7;strokeColor=#9673a6;movable=0;resizable=0;rotatable=0;deletable=0;editable=0;locked=1;connectable=0;" vertex="1" parent="1">
          <mxGeometry x="180" y="585" width="120" height="80" as="geometry" />
        </mxCell>
        <mxCell id="G66qDVMzxWP-WgLyKfKi-63" value="" style="points=[[0.25,0.25,0],[0.5,0,0],[0.75,0.25,0],[1,0.5,0],[0.75,0.75,0],[0.5,1,0],[0.25,0.75,0],[0,0.5,0]];shape=mxgraph.bpmn.gateway2;html=1;verticalLabelPosition=bottom;labelBackgroundColor=#ffffff;verticalAlign=top;align=center;perimeter=rhombusPerimeter;outlineConnect=0;outline=none;symbol=none;gwType=parallel;movable=0;resizable=0;rotatable=0;deletable=0;editable=0;locked=1;connectable=0;" vertex="1" parent="1">
          <mxGeometry x="110" y="515" width="50" height="50" as="geometry" />
        </mxCell>
        <mxCell id="G66qDVMzxWP-WgLyKfKi-64" style="edgeStyle=orthogonalEdgeStyle;rounded=0;orthogonalLoop=1;jettySize=auto;html=1;entryX=0;entryY=0.5;entryDx=0;entryDy=0;entryPerimeter=0;movable=0;resizable=0;rotatable=0;deletable=0;editable=0;locked=1;connectable=0;" edge="1" parent="1" source="G66qDVMzxWP-WgLyKfKi-40" target="G66qDVMzxWP-WgLyKfKi-63">
          <mxGeometry relative="1" as="geometry">
            <mxPoint x="60" y="540" as="sourcePoint" />
          </mxGeometry>
        </mxCell>
        <mxCell id="G66qDVMzxWP-WgLyKfKi-65" style="edgeStyle=orthogonalEdgeStyle;rounded=0;orthogonalLoop=1;jettySize=auto;html=1;entryX=0;entryY=0.5;entryDx=0;entryDy=0;entryPerimeter=0;exitX=0.5;exitY=0;exitDx=0;exitDy=0;exitPerimeter=0;movable=0;resizable=0;rotatable=0;deletable=0;editable=0;locked=1;connectable=0;" edge="1" parent="1" source="G66qDVMzxWP-WgLyKfKi-63" target="G66qDVMzxWP-WgLyKfKi-43">
          <mxGeometry relative="1" as="geometry" />
        </mxCell>
        <mxCell id="G66qDVMzxWP-WgLyKfKi-68" style="edgeStyle=orthogonalEdgeStyle;rounded=0;orthogonalLoop=1;jettySize=auto;html=1;entryX=0;entryY=0.5;entryDx=0;entryDy=0;entryPerimeter=0;exitX=0.5;exitY=1;exitDx=0;exitDy=0;exitPerimeter=0;movable=0;resizable=0;rotatable=0;deletable=0;editable=0;locked=1;connectable=0;" edge="1" parent="1" source="G66qDVMzxWP-WgLyKfKi-63" target="G66qDVMzxWP-WgLyKfKi-62">
          <mxGeometry relative="1" as="geometry" />
        </mxCell>
        <mxCell id="G66qDVMzxWP-WgLyKfKi-70" style="edgeStyle=orthogonalEdgeStyle;rounded=0;orthogonalLoop=1;jettySize=auto;html=1;movable=0;resizable=0;rotatable=0;deletable=0;editable=0;locked=1;connectable=0;" edge="1" parent="1" source="G66qDVMzxWP-WgLyKfKi-69" target="G66qDVMzxWP-WgLyKfKi-46">
          <mxGeometry relative="1" as="geometry" />
        </mxCell>
        <mxCell id="G66qDVMzxWP-WgLyKfKi-69" value="" style="points=[[0.25,0.25,0],[0.5,0,0],[0.75,0.25,0],[1,0.5,0],[0.75,0.75,0],[0.5,1,0],[0.25,0.75,0],[0,0.5,0]];shape=mxgraph.bpmn.gateway2;html=1;verticalLabelPosition=bottom;labelBackgroundColor=#ffffff;verticalAlign=top;align=center;perimeter=rhombusPerimeter;outlineConnect=0;outline=none;symbol=none;movable=0;resizable=0;rotatable=0;deletable=0;editable=0;locked=1;connectable=0;" vertex="1" parent="1">
          <mxGeometry x="330" y="435" width="40" height="40" as="geometry" />
        </mxCell>
        <mxCell id="G66qDVMzxWP-WgLyKfKi-71" style="edgeStyle=orthogonalEdgeStyle;rounded=0;orthogonalLoop=1;jettySize=auto;html=1;entryX=0;entryY=0.5;entryDx=0;entryDy=0;entryPerimeter=0;movable=0;resizable=0;rotatable=0;deletable=0;editable=0;locked=1;connectable=0;" edge="1" parent="1" source="G66qDVMzxWP-WgLyKfKi-43" target="G66qDVMzxWP-WgLyKfKi-69">
          <mxGeometry relative="1" as="geometry" />
        </mxCell>
        <mxCell id="G66qDVMzxWP-WgLyKfKi-72" style="edgeStyle=orthogonalEdgeStyle;rounded=0;orthogonalLoop=1;jettySize=auto;html=1;entryX=0.5;entryY=1;entryDx=0;entryDy=0;entryPerimeter=0;movable=0;resizable=0;rotatable=0;deletable=0;editable=0;locked=1;connectable=0;" edge="1" parent="1" source="G66qDVMzxWP-WgLyKfKi-62" target="G66qDVMzxWP-WgLyKfKi-69">
          <mxGeometry relative="1" as="geometry" />
        </mxCell>
        <mxCell id="G66qDVMzxWP-WgLyKfKi-73" style="edgeStyle=orthogonalEdgeStyle;rounded=0;orthogonalLoop=1;jettySize=auto;html=1;entryX=0.5;entryY=1;entryDx=0;entryDy=0;entryPerimeter=0;movable=0;resizable=0;rotatable=0;deletable=0;editable=0;locked=1;connectable=0;" edge="1" parent="1" source="G66qDVMzxWP-WgLyKfKi-48" target="G66qDVMzxWP-WgLyKfKi-62">
          <mxGeometry relative="1" as="geometry">
            <Array as="points">
              <mxPoint x="575" y="760" />
              <mxPoint x="240" y="760" />
            </Array>
          </mxGeometry>
        </mxCell>
        <mxCell id="G66qDVMzxWP-WgLyKfKi-75" style="edgeStyle=orthogonalEdgeStyle;rounded=0;orthogonalLoop=1;jettySize=auto;html=1;entryX=0;entryY=0.5;entryDx=0;entryDy=0;entryPerimeter=0;movable=0;resizable=0;rotatable=0;deletable=0;editable=0;locked=1;connectable=0;" edge="1" parent="1" source="G66qDVMzxWP-WgLyKfKi-48" target="G66qDVMzxWP-WgLyKfKi-50">
          <mxGeometry relative="1" as="geometry" />
        </mxCell>
        <mxCell id="G66qDVMzxWP-WgLyKfKi-77" style="edgeStyle=orthogonalEdgeStyle;rounded=0;orthogonalLoop=1;jettySize=auto;html=1;entryX=0;entryY=0.5;entryDx=0;entryDy=0;entryPerimeter=0;fillColor=#f8cecc;strokeColor=#b85450;strokeWidth=4;" edge="1" parent="1" source="G66qDVMzxWP-WgLyKfKi-28" target="G66qDVMzxWP-WgLyKfKi-80">
          <mxGeometry relative="1" as="geometry">
            <mxPoint x="80" y="1010" as="targetPoint" />
            <Array as="points">
              <mxPoint x="-75" y="1010" />
              <mxPoint x="100" y="1010" />
            </Array>
          </mxGeometry>
        </mxCell>
        <mxCell id="G66qDVMzxWP-WgLyKfKi-78" value="" style="edgeStyle=orthogonalEdgeStyle;rounded=0;orthogonalLoop=1;jettySize=auto;html=1;entryX=0;entryY=0.5;entryDx=0;entryDy=0;entryPerimeter=0;movable=0;resizable=0;rotatable=0;deletable=0;editable=0;locked=1;connectable=0;" edge="1" parent="1" target="G66qDVMzxWP-WgLyKfKi-40">
          <mxGeometry relative="1" as="geometry">
            <mxPoint x="60" y="540" as="sourcePoint" />
            <mxPoint x="110" y="540" as="targetPoint" />
          </mxGeometry>
        </mxCell>
        <mxCell id="G66qDVMzxWP-WgLyKfKi-40" value="" style="points=[[0.145,0.145,0],[0.5,0,0],[0.855,0.145,0],[1,0.5,0],[0.855,0.855,0],[0.5,1,0],[0.145,0.855,0],[0,0.5,0]];shape=mxgraph.bpmn.event;html=1;verticalLabelPosition=bottom;labelBackgroundColor=#ffffff;verticalAlign=top;align=center;perimeter=ellipsePerimeter;outlineConnect=0;aspect=fixed;outline=standard;symbol=general;fillColor=#d5e8d4;strokeColor=#82b366;movable=0;resizable=0;rotatable=0;deletable=0;editable=0;locked=1;connectable=0;" vertex="1" parent="1">
          <mxGeometry x="24" y="520" width="40" height="40" as="geometry" />
        </mxCell>
        <mxCell id="G66qDVMzxWP-WgLyKfKi-79" style="edgeStyle=orthogonalEdgeStyle;rounded=0;orthogonalLoop=1;jettySize=auto;html=1;entryX=0;entryY=0.5;entryDx=0;entryDy=0;entryPerimeter=0;" edge="1" parent="1" source="G66qDVMzxWP-WgLyKfKi-37" target="G66qDVMzxWP-WgLyKfKi-59">
          <mxGeometry relative="1" as="geometry" />
        </mxCell>
        <mxCell id="G66qDVMzxWP-WgLyKfKi-80" value="Dispara notificação de tentativa de acesso" style="points=[[0.25,0,0],[0.5,0,0],[0.75,0,0],[1,0.25,0],[1,0.5,0],[1,0.75,0],[0.75,1,0],[0.5,1,0],[0.25,1,0],[0,0.75,0],[0,0.5,0],[0,0.25,0]];shape=mxgraph.bpmn.task;whiteSpace=wrap;rectStyle=rounded;size=10;html=1;container=1;expand=0;collapsible=0;taskMarker=send;fillColor=#f8cecc;strokeColor=#b85450;" vertex="1" parent="1">
          <mxGeometry x="145" y="960" width="185" height="100" as="geometry" />
        </mxCell>
        <mxCell id="G66qDVMzxWP-WgLyKfKi-83" style="edgeStyle=orthogonalEdgeStyle;rounded=0;orthogonalLoop=1;jettySize=auto;html=1;fillColor=#d5e8d4;strokeColor=#82b366;strokeWidth=4;entryX=0.5;entryY=0;entryDx=0;entryDy=0;entryPerimeter=0;" edge="1" parent="1" source="G66qDVMzxWP-WgLyKfKi-28" target="G66qDVMzxWP-WgLyKfKi-93">
          <mxGeometry relative="1" as="geometry">
            <mxPoint x="870" y="200" as="targetPoint" />
            <Array as="points">
              <mxPoint x="-75" y="160" />
              <mxPoint x="825" y="160" />
            </Array>
          </mxGeometry>
        </mxCell>
        <mxCell id="G66qDVMzxWP-WgLyKfKi-84" value="SEM RISCO" style="edgeLabel;html=1;align=center;verticalAlign=middle;resizable=0;points=[];" vertex="1" connectable="0" parent="G66qDVMzxWP-WgLyKfKi-83">
          <mxGeometry x="-0.1852" y="4" relative="1" as="geometry">
            <mxPoint as="offset" />
          </mxGeometry>
        </mxCell>
        <mxCell id="G66qDVMzxWP-WgLyKfKi-85" value="FIM" style="points=[[0.145,0.145,0],[0.5,0,0],[0.855,0.145,0],[1,0.5,0],[0.855,0.855,0],[0.5,1,0],[0.145,0.855,0],[0,0.5,0]];shape=mxgraph.bpmn.event;html=1;verticalLabelPosition=bottom;labelBackgroundColor=#ffffff;verticalAlign=top;align=center;perimeter=ellipsePerimeter;outlineConnect=0;aspect=fixed;outline=end;symbol=terminate2;fillColor=#f8cecc;strokeColor=#b85450;" vertex="1" parent="1">
          <mxGeometry x="1110" y="285" width="50" height="50" as="geometry" />
        </mxCell>
        <mxCell id="G66qDVMzxWP-WgLyKfKi-86" style="edgeStyle=orthogonalEdgeStyle;rounded=0;orthogonalLoop=1;jettySize=auto;html=1;entryX=0;entryY=0.5;entryDx=0;entryDy=0;entryPerimeter=0;exitX=1;exitY=0.5;exitDx=0;exitDy=0;exitPerimeter=0;" edge="1" parent="1" source="G66qDVMzxWP-WgLyKfKi-93" target="G66qDVMzxWP-WgLyKfKi-85">
          <mxGeometry relative="1" as="geometry">
            <mxPoint x="990" y="310" as="sourcePoint" />
          </mxGeometry>
        </mxCell>
        <mxCell id="G66qDVMzxWP-WgLyKfKi-92" style="edgeStyle=orthogonalEdgeStyle;rounded=0;orthogonalLoop=1;jettySize=auto;html=1;" edge="1" parent="1" source="G66qDVMzxWP-WgLyKfKi-88" target="G66qDVMzxWP-WgLyKfKi-91">
          <mxGeometry relative="1" as="geometry" />
        </mxCell>
        <mxCell id="G66qDVMzxWP-WgLyKfKi-88" value="Rejeitar Onboarding" style="points=[[0.25,0,0],[0.5,0,0],[0.75,0,0],[1,0.25,0],[1,0.5,0],[1,0.75,0],[0.75,1,0],[0.5,1,0],[0.25,1,0],[0,0.75,0],[0,0.5,0],[0,0.25,0]];shape=mxgraph.bpmn.task;whiteSpace=wrap;rectStyle=rounded;size=10;html=1;container=1;expand=0;collapsible=0;taskMarker=abstract;fillColor=#dae8fc;strokeColor=#6c8ebf;" vertex="1" parent="1">
          <mxGeometry x="755" y="965" width="140" height="90" as="geometry" />
        </mxCell>
        <mxCell id="G66qDVMzxWP-WgLyKfKi-89" style="edgeStyle=orthogonalEdgeStyle;rounded=0;orthogonalLoop=1;jettySize=auto;html=1;entryX=0;entryY=0.5;entryDx=0;entryDy=0;entryPerimeter=0;" edge="1" parent="1" source="G66qDVMzxWP-WgLyKfKi-80" target="G66qDVMzxWP-WgLyKfKi-88">
          <mxGeometry relative="1" as="geometry" />
        </mxCell>
        <mxCell id="G66qDVMzxWP-WgLyKfKi-90" style="edgeStyle=orthogonalEdgeStyle;rounded=0;orthogonalLoop=1;jettySize=auto;html=1;entryX=0.5;entryY=0;entryDx=0;entryDy=0;entryPerimeter=0;" edge="1" parent="1" source="G66qDVMzxWP-WgLyKfKi-59" target="G66qDVMzxWP-WgLyKfKi-88">
          <mxGeometry relative="1" as="geometry" />
        </mxCell>
        <mxCell id="G66qDVMzxWP-WgLyKfKi-91" value="FIM" style="points=[[0.145,0.145,0],[0.5,0,0],[0.855,0.145,0],[1,0.5,0],[0.855,0.855,0],[0.5,1,0],[0.145,0.855,0],[0,0.5,0]];shape=mxgraph.bpmn.event;html=1;verticalLabelPosition=bottom;labelBackgroundColor=#ffffff;verticalAlign=top;align=center;perimeter=ellipsePerimeter;outlineConnect=0;aspect=fixed;outline=end;symbol=terminate2;fillColor=#f8cecc;strokeColor=#b85450;" vertex="1" parent="1">
          <mxGeometry x="1120" y="985" width="50" height="50" as="geometry" />
        </mxCell>
        <mxCell id="G66qDVMzxWP-WgLyKfKi-93" value="Confirmar onboarding cliente" style="points=[[0.25,0,0],[0.5,0,0],[0.75,0,0],[1,0.25,0],[1,0.5,0],[1,0.75,0],[0.75,1,0],[0.5,1,0],[0.25,1,0],[0,0.75,0],[0,0.5,0],[0,0.25,0]];shape=mxgraph.bpmn.task;whiteSpace=wrap;rectStyle=rounded;size=10;html=1;container=1;expand=0;collapsible=0;bpmnShapeType=call;isLoopSub=1;fillColor=#dae8fc;strokeColor=#6c8ebf;" vertex="1" parent="1">
          <mxGeometry x="780" y="270" width="90" height="80" as="geometry" />
        </mxCell>
        <mxCell id="G66qDVMzxWP-WgLyKfKi-94" style="edgeStyle=orthogonalEdgeStyle;rounded=0;orthogonalLoop=1;jettySize=auto;html=1;entryX=0.5;entryY=1;entryDx=0;entryDy=0;entryPerimeter=0;" edge="1" parent="1" source="G66qDVMzxWP-WgLyKfKi-59" target="G66qDVMzxWP-WgLyKfKi-93">
          <mxGeometry relative="1" as="geometry" />
        </mxCell>
        <mxCell id="G66qDVMzxWP-WgLyKfKi-95" value="&amp;gt;18" style="points=[[0.25,0.25,0],[0.5,0,0],[0.75,0.25,0],[1,0.5,0],[0.75,0.75,0],[0.5,1,0],[0.25,0.75,0],[0,0.5,0]];shape=mxgraph.bpmn.gateway2;html=1;verticalLabelPosition=bottom;labelBackgroundColor=#ffffff;verticalAlign=top;align=center;perimeter=rhombusPerimeter;outlineConnect=0;outline=none;symbol=none;gwType=exclusive;" vertex="1" parent="1">
          <mxGeometry x="-810" y="245" width="50" height="50" as="geometry" />
        </mxCell>
        <mxCell id="G66qDVMzxWP-WgLyKfKi-97" style="edgeStyle=orthogonalEdgeStyle;rounded=0;orthogonalLoop=1;jettySize=auto;html=1;entryX=0.5;entryY=0;entryDx=0;entryDy=0;entryPerimeter=0;" edge="1" parent="1" source="G66qDVMzxWP-WgLyKfKi-56" target="G66qDVMzxWP-WgLyKfKi-95">
          <mxGeometry relative="1" as="geometry" />
        </mxCell>
        <mxCell id="G66qDVMzxWP-WgLyKfKi-98" style="edgeStyle=orthogonalEdgeStyle;rounded=0;orthogonalLoop=1;jettySize=auto;html=1;entryX=0;entryY=0.5;entryDx=0;entryDy=0;entryPerimeter=0;" edge="1" parent="1" source="G66qDVMzxWP-WgLyKfKi-95" target="G66qDVMzxWP-WgLyKfKi-18">
          <mxGeometry relative="1" as="geometry" />
        </mxCell>
        <mxCell id="G66qDVMzxWP-WgLyKfKi-99" style="edgeStyle=orthogonalEdgeStyle;rounded=0;orthogonalLoop=1;jettySize=auto;html=1;entryX=0.5;entryY=1;entryDx=0;entryDy=0;entryPerimeter=0;" edge="1" parent="1" source="G66qDVMzxWP-WgLyKfKi-95" target="G66qDVMzxWP-WgLyKfKi-56">
          <mxGeometry relative="1" as="geometry" />
        </mxCell>
      </root>
    </mxGraphModel>
  </diagram>
</mxfile>
